<svg width="584" height="695" viewBox="0 0 584 695" fill="none" xmlns="http://www.w3.org/2000/svg">
<path d="M570.574 547.593L197.316 673.744C192.667 675.309 187.588 674.967 183.192 672.792C178.795 670.617 175.442 666.786 173.866 662.142L0.96837 150.569C-0.596843 145.921 -0.254274 140.841 1.92092 136.445C4.0961 132.049 7.92628 128.695 12.5711 127.12L385.83 0.968366C390.478 -0.596844 395.557 -0.25427 399.953 1.92092C404.35 4.09611 407.703 7.92627 409.279 12.5711L582.177 524.144C583.742 528.792 583.399 533.871 581.224 538.267C579.049 542.664 575.219 546.017 570.574 547.593Z" fill="#E6E6E6"/>
<path d="M570.574 547.593L197.316 673.744C192.667 675.309 187.588 674.967 183.192 672.792C178.795 670.617 175.442 666.786 173.866 662.142L0.96837 150.569C-0.596843 145.921 -0.254274 140.841 1.92092 136.445C4.0961 132.049 7.92628 128.695 12.5711 127.12L385.83 0.968366C390.478 -0.596844 395.557 -0.25427 399.953 1.92092C404.35 4.09611 407.703 7.92627 409.279 12.5711L582.177 524.144C583.742 528.792 583.399 533.871 581.224 538.267C579.049 542.664 575.219 546.017 570.574 547.593Z" fill="#E6E6E6"/>
<path d="M561.048 538.146L199.158 660.455C196.017 661.513 192.585 661.281 189.614 659.811C186.644 658.342 184.378 655.754 183.313 652.615L14.2578 152.411C13.2002 149.27 13.4317 145.838 14.9014 142.868C16.3712 139.898 18.9591 137.632 22.0975 136.567L383.988 14.2578C387.128 13.2002 390.56 13.4317 393.531 14.9014C396.501 16.3712 398.767 18.9591 399.832 22.0975L568.887 522.302C569.945 525.443 569.713 528.875 568.244 531.845C566.774 534.815 564.186 537.081 561.048 538.146Z" fill="white"/>
<path d="M561.048 538.146L199.158 660.455C196.017 661.513 192.585 661.281 189.614 659.811C186.644 658.342 184.378 655.754 183.313 652.615L14.2578 152.411C13.2002 149.27 13.4317 145.838 14.9014 142.868C16.3712 139.898 18.9591 137.632 22.0975 136.567L383.988 14.2578C387.128 13.2002 390.56 13.4317 393.531 14.9014C396.501 16.3712 398.767 18.9591 399.832 22.0975L568.887 522.302C569.945 525.443 569.713 528.875 568.244 531.845C566.774 534.815 564.186 537.081 561.048 538.146Z" fill="white"/>
<path d="M470.072 694.356H76.0723C71.1675 694.351 66.4651 692.4 62.9969 688.932C59.5287 685.463 57.5778 680.761 57.5723 675.856V135.856C57.5778 130.951 59.5287 126.249 62.9969 122.781C66.4651 119.313 71.1675 117.362 76.0723 117.356H470.072C474.977 117.362 479.679 119.313 483.148 122.781C486.616 126.249 488.567 130.951 488.572 135.856V675.856C488.567 680.761 486.616 685.463 483.148 688.932C479.679 692.4 474.977 694.351 470.072 694.356Z" fill="#CCCCCC"/>
<path d="M470.072 694.356H76.0723C71.1675 694.351 66.4651 692.4 62.9969 688.932C59.5287 685.463 57.5778 680.761 57.5723 675.856V135.856C57.5778 130.951 59.5287 126.249 62.9969 122.781C66.4651 119.313 71.1675 117.362 76.0723 117.356H470.072C474.977 117.362 479.679 119.313 483.148 122.781C486.616 126.249 488.567 130.951 488.572 135.856V675.856C488.567 680.761 486.616 685.463 483.148 688.932C479.679 692.4 474.977 694.351 470.072 694.356Z" fill="#CCCCCC"/>
<path d="M464.072 682.356H82.0723C78.7582 682.352 75.5809 681.034 73.2375 678.691C70.8942 676.348 69.576 673.17 69.5723 669.856V141.856C69.576 138.542 70.8942 135.365 73.2375 133.021C75.5809 130.678 78.7582 129.36 82.0723 129.356H464.072C467.386 129.36 470.564 130.678 472.907 133.021C475.25 135.365 476.569 138.542 476.572 141.856V669.856C476.569 673.17 475.25 676.348 472.907 678.691C470.564 681.034 467.386 682.352 464.072 682.356Z" fill="white"/>
<path d="M464.072 682.356H82.0723C78.7582 682.352 75.5809 681.034 73.2375 678.691C70.8942 676.348 69.576 673.17 69.5723 669.856V141.856C69.576 138.542 70.8942 135.365 73.2375 133.021C75.5809 130.678 78.7582 129.36 82.0723 129.356H464.072C467.386 129.36 470.564 130.678 472.907 133.021C475.25 135.365 476.569 138.542 476.572 141.856V669.856C476.569 673.17 475.25 676.348 472.907 678.691C470.564 681.034 467.386 682.352 464.072 682.356Z" fill="white"/>
<path d="M382.694 279.133H130.393C128.267 279.133 126.229 278.289 124.726 276.786C123.223 275.283 122.378 273.245 122.378 271.119C122.378 268.994 123.223 266.955 124.726 265.452C126.229 263.949 128.267 263.105 130.393 263.105H382.694C384.82 263.105 386.858 263.949 388.361 265.452C389.864 266.955 390.708 268.994 390.708 271.119C390.708 273.245 389.864 275.283 388.361 276.786C386.858 278.289 384.82 279.133 382.694 279.133Z" fill="#CCCCCC"/>
<path d="M415.752 306.181H130.393C129.34 306.181 128.298 305.974 127.326 305.571C126.353 305.168 125.47 304.578 124.726 303.834C123.982 303.089 123.391 302.206 122.988 301.234C122.586 300.261 122.378 299.219 122.378 298.167C122.378 297.114 122.586 296.072 122.988 295.1C123.391 294.128 123.982 293.244 124.726 292.5C125.47 291.756 126.353 291.165 127.326 290.763C128.298 290.36 129.34 290.153 130.393 290.153H415.752C417.878 290.153 419.916 290.997 421.419 292.5C422.922 294.003 423.767 296.041 423.767 298.167C423.767 300.292 422.922 302.331 421.419 303.834C419.916 305.336 417.878 306.181 415.752 306.181Z" fill="#CCCCCC"/>
<path d="M382.694 400.347H130.392C128.268 400.344 126.232 399.499 124.731 397.996C123.23 396.493 122.387 394.456 122.387 392.332C122.387 390.209 123.23 388.171 124.731 386.669C126.232 385.166 128.268 384.321 130.392 384.318H382.694C384.82 384.318 386.858 385.163 388.361 386.666C389.864 388.169 390.708 390.207 390.708 392.332C390.708 394.458 389.864 396.496 388.361 397.999C386.858 399.502 384.82 400.347 382.694 400.347Z" fill="#04CE5F"/>
<path d="M415.752 427.394H130.392C128.268 427.392 126.232 426.546 124.731 425.044C123.23 423.541 122.387 421.504 122.387 419.38C122.387 417.256 123.23 415.219 124.731 413.716C126.232 412.214 128.268 411.368 130.392 411.366H415.752C417.878 411.366 419.916 412.21 421.419 413.713C422.922 415.216 423.766 417.255 423.766 419.38C423.766 421.506 422.922 423.544 421.419 425.047C419.916 426.55 417.878 427.394 415.752 427.394Z" fill="#CCCCCC"/>
<path d="M382.694 521.56H130.392C128.268 521.558 126.232 520.712 124.731 519.21C123.23 517.707 122.387 515.67 122.387 513.546C122.387 511.422 123.23 509.385 124.731 507.882C126.232 506.38 128.268 505.534 130.392 505.532H382.694C384.82 505.532 386.858 506.376 388.361 507.879C389.864 509.382 390.708 511.421 390.708 513.546C390.708 515.672 389.864 517.71 388.361 519.213C386.858 520.716 384.82 521.56 382.694 521.56Z" fill="#CCCCCC"/>
<path d="M415.752 548.608H130.393C128.267 548.608 126.229 547.763 124.726 546.26C123.223 544.757 122.378 542.719 122.378 540.593C122.378 538.468 123.223 536.43 124.726 534.927C126.229 533.424 128.267 532.579 130.393 532.579H415.752C417.878 532.579 419.916 533.424 421.419 534.927C422.922 536.43 423.767 538.468 423.767 540.593C423.767 542.719 422.922 544.757 421.419 546.26C419.916 547.763 417.878 548.608 415.752 548.608Z" fill="#CCCCCC"/>
</svg>
