<svg width="355" height="480" viewBox="0 0 355 480" fill="none" xmlns="http://www.w3.org/2000/svg">
<path d="M252.792 408.602L244.611 429.895L158.587 408.472L170.661 377.045L252.792 408.602Z" fill="#FFB8B8"/>
<path d="M275.519 411.101L249.14 479.759L248.271 479.425C241.184 476.702 235.469 471.275 232.382 464.338C229.296 457.401 229.092 449.523 231.814 442.435L231.815 442.433L247.926 400.499L275.519 411.101Z" fill="#505050"/>
<path d="M122.075 141.992L84.5866 145.502L82.7269 257.044C83.2238 262.511 85.8417 267.565 90.0198 271.125C94.1979 274.685 99.604 276.467 105.08 276.09L128.848 274.453L122.075 141.992Z" fill="#04CE5F"/>
<path d="M254.237 136.502L228.587 136.172L227.067 268.707C232.735 268.897 238.382 267.916 243.654 265.826C248.926 263.736 253.712 260.583 257.711 256.562C261.711 252.541 264.839 247.739 266.901 242.455C268.962 237.172 269.913 231.52 269.694 225.853L254.237 136.502Z" fill="#04CE5F"/>
<path d="M105.401 315.791C104.793 319.636 103.911 323.431 102.762 327.15C101.468 330.79 99.4694 334.156 98.2859 337.833C94.5135 349.554 99.7432 362.623 108.096 371.67C115.339 379.485 124.689 385.037 135.017 387.656C142.552 389.552 150.387 389.824 158.152 390.088C179.655 390.817 201.711 391.469 222.086 384.559C228.523 382.322 234.741 379.497 240.661 376.12C242.53 375.23 244.176 373.933 245.48 372.325C247.034 370.113 247.233 367.244 247.22 364.54C247.174 355.424 245.326 346.355 245.765 337.25C246.008 332.207 246.952 327.168 246.487 322.14C245.844 316.43 243.452 311.058 239.638 306.759C235.825 302.461 230.776 299.446 225.183 298.128C219.403 296.887 213.408 297.563 207.523 298.129C192.249 299.596 176.909 300.282 161.564 300.184C145.885 300.084 130.304 297.69 114.703 297.44C110.09 297.366 110.183 298.789 108.714 303.254C107.361 307.363 106.255 311.55 105.401 315.791Z" fill="#505050"/>
<path d="M44.0919 308.383C39.8759 307.323 35.5318 306.861 31.1872 307.011C26.6224 307.263 22.1637 308.484 18.1074 310.593C14.0511 312.702 10.4903 315.651 7.6617 319.242C4.83309 322.834 2.80153 326.987 1.70207 331.424C0.602624 335.862 0.460483 340.483 1.28511 344.979C2.33788 349.85 4.05867 354.553 6.39864 358.953C9.82101 365.898 13.9256 372.827 20.2613 377.278C23.9675 379.882 28.257 381.505 32.4955 383.102L65.8642 395.672C70.7731 397.521 75.6827 399.371 80.6402 401.086C105.546 409.694 131.513 414.857 157.817 416.429C165.83 416.906 173.964 417.039 181.78 415.214C183.635 414.782 185.614 414.136 186.688 412.563C187.324 411.455 187.699 410.216 187.784 408.941L189.838 394.567C190.127 392.543 190.405 390.412 189.663 388.507C188.722 386.091 186.365 384.572 184.117 383.28C162.179 370.681 136.564 363.729 118.099 346.436C113.752 342.365 110.114 335.912 104.833 333.147C98.8435 330.011 91.7901 328.221 85.5994 325.331C72.0658 319.014 58.7597 311.754 44.0919 308.383Z" fill="#505050"/>
<path opacity="0.1" d="M77.4057 327.762C89.2002 331.458 138.996 357.062 147.532 366.002C146.387 366.414 107.571 344.66 106.406 344.311C95.8181 341.133 85.1717 337.935 75.1173 333.284C73.0946 332.349 61.9767 327.952 62.4803 325.4C63.0484 322.52 75.3119 327.106 77.4057 327.762Z" fill="black"/>
<path d="M148.587 104.502L116.831 128.613C116.831 128.613 83.3221 129.662 84.4543 151.082C85.5866 172.502 98.9976 273.919 98.9976 273.919L101.907 308.815L157.1 324.541C186.922 333.038 218.428 333.714 248.587 326.502L242.028 291.494C242.028 291.494 268.587 132.502 252.587 125.502C236.587 118.502 226.587 120.502 226.587 120.502L206.531 103.002L148.587 104.502Z" fill="#04CE5F"/>
<path d="M221.587 109.502H134.587V214.502H221.587V109.502Z" fill="#F1F1F1"/>
<path d="M139.381 407.602L147.563 428.895L233.587 407.472L221.512 376.045L139.381 407.602Z" fill="#FFB8B8"/>
<path d="M144.247 399.499L160.359 441.433L160.359 441.435C163.082 448.523 162.877 456.401 159.791 463.338C156.705 470.275 150.989 475.702 143.902 478.425L143.034 478.759L116.654 410.101L144.247 399.499Z" fill="#505050"/>
<path d="M311.335 300.232C318.245 298.499 325.409 298.01 332.492 298.787C338.148 299.41 343.975 300.984 348.105 304.899C353.131 309.663 354.746 317.033 354.881 323.957C355.102 337.749 350.527 351.19 341.939 361.984C339.842 364.714 337.348 367.115 334.54 369.107C331.511 371.002 328.282 372.558 324.913 373.746L250.185 403.221C230.526 410.975 210.797 418.752 190.292 423.864C189.177 424.402 187.894 424.475 186.725 424.068C185.556 423.66 184.597 422.804 184.059 421.689C184.042 421.655 184.026 421.621 184.011 421.587C177.463 412.234 171.971 402.187 167.633 391.627C167.427 391.376 167.285 391.079 167.219 390.761C167.152 390.444 167.163 390.115 167.251 389.803C167.338 389.491 167.5 389.204 167.722 388.967C167.943 388.731 168.219 388.551 168.525 388.443L221.38 358.074C225.166 355.899 228.995 353.692 232.138 350.662C234.423 348.448 236.293 345.844 237.662 342.972C238.757 340.684 238.859 335.284 240.259 333.592C241.629 331.936 246.316 331.804 248.481 331.153C251.534 330.217 254.524 329.087 257.432 327.769C269.256 322.479 279.784 314.794 291.118 308.601C297.475 304.966 304.269 302.154 311.335 300.232Z" fill="#505050"/>
<path opacity="0.1" d="M281.37 322.912C272.289 329.732 260.531 336.002 251.531 343.002C248.46 345.391 197.255 374.178 196.531 378.002C204.928 379.416 258.414 341.999 266.067 338.265C273.72 334.531 280.503 329.266 287.225 324.039C288.939 322.707 296.199 318.704 291.281 317.215C288.511 316.377 283.415 321.548 281.37 322.912Z" fill="black"/>
<path opacity="0.17" d="M104.587 176.502L105.788 167.232C105.788 167.232 150.587 170.502 143.587 181.502C136.587 192.502 119.587 193.502 119.587 193.502L104.587 176.502Z" fill="#2F2E41"/>
<path d="M138.403 136.194C140.969 136.477 143.441 137.324 145.641 138.675C147.841 140.026 149.714 141.847 151.127 144.008C152.415 145.979 153.29 148.191 153.702 150.51C154.113 152.828 154.051 155.206 153.521 157.5C152.99 159.794 152.001 161.958 150.613 163.86C149.225 165.762 147.467 167.365 145.444 168.571C144.703 169.009 143.929 169.389 143.129 169.709L115.593 253.936C114.795 255.598 113.676 257.086 112.301 258.314C110.927 259.543 109.323 260.487 107.582 261.093C105.841 261.7 103.997 261.956 102.156 261.847C100.316 261.738 98.5154 261.267 96.8578 260.46C95.2002 259.653 93.7185 258.526 92.4978 257.145C91.2771 255.763 90.3415 254.154 89.7448 252.41C89.1481 250.665 88.9021 248.82 89.0208 246.981C89.1396 245.141 89.6208 243.343 90.4368 241.69L119.721 158.397C118.923 155.641 118.817 152.731 119.412 149.925C120.007 147.118 121.284 144.501 123.132 142.306C124.979 140.111 127.338 138.405 130.002 137.339C132.666 136.273 135.551 135.88 138.403 136.194Z" fill="#FFB8B8"/>
<path d="M104.998 168.022C104.998 168.022 120.776 194.979 143.587 181.502L121.48 266.1H102.854L83.5866 262.502L88.9815 227.549L104.998 168.022Z" fill="#04CE5F"/>
<path d="M217.657 186.447L204.587 168.502C204.587 168.502 210.869 149.889 235.228 156.695C235.228 156.695 250.728 191.392 217.657 186.447Z" fill="#E5E5E5"/>
<path opacity="0.17" d="M217.657 186.447L204.587 168.502C204.587 168.502 210.869 149.889 235.228 156.695C235.228 156.695 250.728 191.392 217.657 186.447Z" fill="#2F2E41"/>
<path d="M221.118 123.751C224.889 125.504 227.905 128.552 229.618 132.341C231.331 136.13 231.627 140.408 230.452 144.397L259.736 227.69C260.553 229.343 261.034 231.141 261.153 232.981C261.272 234.821 261.026 236.666 260.429 238.41C259.832 240.155 258.897 241.764 257.676 243.146C256.455 244.527 254.973 245.654 253.316 246.461C251.658 247.268 249.857 247.739 248.017 247.848C246.176 247.957 244.333 247.7 242.592 247.094C240.851 246.488 239.246 245.543 237.872 244.315C236.497 243.087 235.378 241.598 234.581 239.936L207.044 155.709C206.245 155.389 205.47 155.009 204.729 154.571C202.706 153.365 200.948 151.762 199.56 149.86C198.173 147.958 197.183 145.794 196.653 143.5C196.122 141.206 196.06 138.828 196.472 136.51C196.883 134.191 197.758 131.979 199.046 130.008C200.459 127.847 202.333 126.026 204.533 124.675C206.733 123.324 209.204 122.477 211.771 122.195C214.971 121.832 218.208 122.371 221.118 123.751Z" fill="#FFB8B8"/>
<path d="M204.587 168.502C204.587 168.502 226.152 181.587 235.228 156.695L265.616 236.71L256.587 252.502L255.281 252.611C249.894 253.06 244.478 252.195 239.5 250.089C234.521 247.984 230.127 244.702 226.697 240.525C219.7 232.004 214.936 221.874 212.837 211.05L204.587 168.502Z" fill="#04CE5F"/>
<path d="M136 55.8796C136 62.9759 138.104 69.9128 142.047 75.8132C145.989 81.7135 151.593 86.3123 158.149 89.0279C164.705 91.7436 171.919 92.4541 178.879 91.0697C185.839 89.6853 192.232 86.2681 197.25 81.2503C202.268 76.2324 205.685 69.8393 207.07 62.8794C208.454 55.9194 207.744 48.7053 205.028 42.1491C202.312 35.593 197.714 29.9894 191.813 26.0469C185.913 22.1044 178.976 20.0001 171.88 20.0001C162.387 19.9764 153.275 23.7244 146.546 30.4196C139.817 37.1148 136.024 46.2087 136 55.7008C136 55.7604 136 55.82 136 55.8796Z" fill="#FFB8B8"/>
<path d="M211.866 20.9623C208.973 18.7289 206.622 15.8718 204.987 12.6036C204.403 11.3615 203.598 10.2361 202.611 9.28248L195.827 14.5L199.973 7.27876C189.354 0.860176 168.619 4.26917 168.619 4.26917C147.049 -7.21692 139.128 7.12097 136.367 16.2138C135.273 19.5043 133.344 22.4548 130.769 24.7767C125.448 29.8502 133.827 39.7187 133.827 39.7187V40.4161L135.827 54C135.827 54 137.827 45 143.105 38.6756C146.432 34.6882 151.848 32.3174 154.364 32.3665C186.827 33 192.973 34.2855 192.973 34.2855C192.973 34.2855 198.469 37.2381 200.896 38.4784C208.74 42.4865 206.827 57 206.827 57L212.688 31.241C214.041 24.9969 213.29 22.132 211.866 20.9623Z" fill="#505050"/>
</svg>
