<svg width="812" height="696" viewBox="0 0 812 696" fill="none" xmlns="http://www.w3.org/2000/svg">
<g clip-path="url(#clip0_10_2)">
<path d="M798.655 547.6L425.397 673.751C420.748 675.317 415.669 674.974 411.273 672.799C406.877 670.624 403.523 666.793 401.947 662.149L229.049 150.576C227.484 145.928 227.827 140.848 230.002 136.452C232.177 132.056 236.007 128.702 240.652 127.127L613.911 0.975446C618.559 -0.589764 623.638 -0.24719 628.035 1.928C632.431 4.10319 635.784 7.93335 637.36 12.5782L810.258 524.151C811.823 528.799 811.48 533.878 809.305 538.275C807.13 542.671 803.3 546.024 798.655 547.6Z" fill="#E6E6E6"/>
<path d="M798.655 547.6L425.397 673.751C420.748 675.317 415.669 674.974 411.273 672.799C406.877 670.624 403.523 666.793 401.947 662.149L229.049 150.576C227.484 145.928 227.827 140.848 230.002 136.452C232.177 132.056 236.007 128.702 240.652 127.127L613.911 0.975446C618.559 -0.589764 623.638 -0.24719 628.035 1.928C632.431 4.10319 635.784 7.93335 637.36 12.5782L810.258 524.151C811.823 528.799 811.48 533.878 809.305 538.275C807.13 542.671 803.3 546.024 798.655 547.6Z" fill="#E6E6E6"/>
<path d="M789.129 538.153L427.239 660.462C424.098 661.52 420.666 661.288 417.695 659.818C414.725 658.349 412.459 655.761 411.394 652.622L242.339 152.418C241.281 149.277 241.513 145.845 242.982 142.875C244.452 139.905 247.04 137.639 250.179 136.574L612.069 14.2649C615.209 13.2073 618.642 13.4388 621.612 14.9085C624.582 16.3782 626.848 18.9662 627.913 22.1046L796.969 522.309C798.026 525.45 797.795 528.882 796.325 531.852C794.855 534.822 792.267 537.088 789.129 538.153Z" fill="white"/>
<path d="M789.129 538.153L427.239 660.462C424.098 661.52 420.666 661.288 417.695 659.818C414.725 658.349 412.459 655.761 411.394 652.622L242.339 152.418C241.281 149.277 241.513 145.845 242.982 142.875C244.452 139.905 247.04 137.639 250.179 136.574L612.069 14.2649C615.209 13.2073 618.642 13.4388 621.612 14.9085C624.582 16.3782 626.848 18.9662 627.913 22.1046L796.969 522.309C798.026 525.45 797.795 528.882 796.325 531.852C794.855 534.822 792.267 537.088 789.129 538.153Z" fill="white"/>
<path d="M698.153 694.363H304.153C299.249 694.358 294.546 692.407 291.078 688.939C287.61 685.47 285.659 680.768 285.653 675.863V135.863C285.659 130.958 287.61 126.256 291.078 122.788C294.546 119.32 299.249 117.369 304.153 117.363H698.153C703.058 117.369 707.76 119.32 711.229 122.788C714.697 126.256 716.648 130.958 716.653 135.863V675.863C716.648 680.768 714.697 685.47 711.229 688.939C707.76 692.407 703.058 694.358 698.153 694.363Z" fill="#CCCCCC"/>
<path d="M698.153 694.363H304.153C299.249 694.358 294.546 692.407 291.078 688.939C287.61 685.47 285.659 680.768 285.653 675.863V135.863C285.659 130.958 287.61 126.256 291.078 122.788C294.546 119.32 299.249 117.369 304.153 117.363H698.153C703.058 117.369 707.76 119.32 711.229 122.788C714.697 126.256 716.648 130.958 716.653 135.863V675.863C716.648 680.768 714.697 685.47 711.229 688.939C707.76 692.407 703.058 694.358 698.153 694.363Z" fill="#CCCCCC"/>
<path d="M692.153 682.363H310.153C306.839 682.36 303.662 681.041 301.319 678.698C298.975 676.355 297.657 673.177 297.653 669.863V141.863C297.657 138.549 298.975 135.372 301.319 133.029C303.662 130.685 306.839 129.367 310.153 129.363H692.153C695.467 129.367 698.645 130.685 700.988 133.029C703.331 135.372 704.65 138.549 704.653 141.863V669.863C704.65 673.177 703.331 676.355 700.988 678.698C698.645 681.041 695.467 682.36 692.153 682.363Z" fill="white"/>
<path d="M692.153 682.363H310.153C306.839 682.36 303.662 681.041 301.319 678.698C298.975 676.355 297.657 673.177 297.653 669.863V141.863C297.657 138.549 298.975 135.372 301.319 133.029C303.662 130.685 306.839 129.367 310.153 129.363H692.153C695.467 129.367 698.645 130.685 700.988 133.029C703.331 135.372 704.65 138.549 704.653 141.863V669.863C704.65 673.177 703.331 676.355 700.988 678.698C698.645 681.041 695.467 682.36 692.153 682.363Z" fill="white"/>
<path d="M610.775 279.14H358.474C356.348 279.14 354.31 278.296 352.807 276.793C351.304 275.29 350.459 273.252 350.459 271.126C350.459 269.001 351.304 266.962 352.807 265.459C354.31 263.956 356.348 263.112 358.474 263.112H610.775C612.901 263.112 614.939 263.956 616.442 265.459C617.945 266.962 618.789 269.001 618.789 271.126C618.789 273.252 617.945 275.29 616.442 276.793C614.939 278.296 612.901 279.14 610.775 279.14Z" fill="#CCCCCC"/>
<path d="M643.833 306.188H358.474C357.421 306.188 356.379 305.981 355.407 305.578C354.434 305.175 353.551 304.585 352.807 303.841C352.063 303.096 351.472 302.213 351.07 301.241C350.667 300.268 350.459 299.226 350.459 298.174C350.459 297.121 350.667 296.079 351.07 295.107C351.472 294.135 352.063 293.251 352.807 292.507C353.551 291.763 354.434 291.172 355.407 290.77C356.379 290.367 357.421 290.16 358.474 290.16H643.833C645.959 290.16 647.997 291.004 649.5 292.507C651.003 294.01 651.848 296.048 651.848 298.174C651.848 300.299 651.003 302.338 649.5 303.841C647.997 305.344 645.959 306.188 643.833 306.188Z" fill="#CCCCCC"/>
<path d="M610.775 400.354H358.473C356.35 400.351 354.313 399.506 352.812 398.003C351.311 396.501 350.468 394.463 350.468 392.34C350.468 390.216 351.311 388.179 352.812 386.676C354.313 385.173 356.35 384.328 358.473 384.325H610.775C612.901 384.325 614.939 385.17 616.442 386.673C617.945 388.176 618.789 390.214 618.789 392.34C618.789 394.465 617.945 396.503 616.442 398.006C614.939 399.509 612.901 400.354 610.775 400.354Z" fill="#04CE5F"/>
<path d="M643.833 427.401H358.473C356.35 427.399 354.313 426.554 352.812 425.051C351.311 423.548 350.468 421.511 350.468 419.387C350.468 417.263 351.311 415.226 352.812 413.723C354.313 412.221 356.35 411.375 358.473 411.373H643.833C645.959 411.373 647.997 412.217 649.5 413.72C651.003 415.223 651.847 417.262 651.847 419.387C651.847 421.513 651.003 423.551 649.5 425.054C647.997 426.557 645.959 427.401 643.833 427.401Z" fill="#CCCCCC"/>
<path d="M610.775 521.567H358.473C356.35 521.565 354.313 520.72 352.812 519.217C351.311 517.714 350.468 515.677 350.468 513.553C350.468 511.429 351.311 509.392 352.812 507.89C354.313 506.387 356.35 505.541 358.473 505.539H610.775C612.901 505.539 614.939 506.383 616.442 507.886C617.945 509.389 618.789 511.428 618.789 513.553C618.789 515.679 617.945 517.717 616.442 519.22C614.939 520.723 612.901 521.567 610.775 521.567Z" fill="#CCCCCC"/>
<path d="M643.833 548.615H358.474C356.348 548.615 354.31 547.77 352.807 546.267C351.304 544.764 350.459 542.726 350.459 540.601C350.459 538.475 351.304 536.437 352.807 534.934C354.31 533.431 356.348 532.586 358.474 532.586H643.833C645.959 532.586 647.997 533.431 649.5 534.934C651.003 536.437 651.848 538.475 651.848 540.601C651.848 542.726 651.003 544.764 649.5 546.267C647.997 547.77 645.959 548.615 643.833 548.615Z" fill="#CCCCCC"/>
</g>
<defs>
<clipPath id="clip0_10_2">
<rect width="811.233" height="695.863" fill="white"/>
</clipPath>
</defs>
</svg>
